<?xml version="1.0" standalone="no"?><!-- Generator: Gravit.io --><svg xmlns="http://www.w3.org/2000/svg" xmlns:xlink="http://www.w3.org/1999/xlink" style="isolation:isolate" viewBox="-282 145 512 512" width="512px" height="512px"><defs><clipPath id="_clipPath_FSGJB8nF1y0JTZX3TqHTtzTGbUs7iwYl"><rect x="-282" y="145" width="512" height="512"/></clipPath></defs><g clip-path="url(#_clipPath_FSGJB8nF1y0JTZX3TqHTtzTGbUs7iwYl)"><circle vector-effect="non-scaling-stroke" cx="-26" cy="401" r="256" fill="rgb(74,134,232)"/><g><path d=" M -189.604 561.429 C -186.053 564.98 -183.728 564.796 -181.175 565.237 C -182.002 561.491 -181.26 558.182 -178.132 555.009 C -174.151 550.97 -169.509 547.137 -166.452 544.825 C -166.634 543.205 -165.728 541.585 -163.851 542.665 C -162.958 541.794 -162.196 540.818 -160.729 540.377 C -160.657 538.689 -160.499 537.603 -160.241 537.314 C -154.218 533.965 -149.364 528.234 -144.714 524.018 C -140.512 520.21 -135.896 516.881 -131.879 512.876 C -130.425 511.426 -129.094 509.87 -127.797 508.279 C -118.043 517.804 -107.96 526.6 -96.594 531.594 L -100.124 520.654 C -109.712 521.208 -118.019 513.358 -125.66 505.626 C -124.827 504.58 -123.998 503.536 -123.137 502.515 C -120.538 500.981 -117.978 499.64 -115.495 498.576 L 101.579 278.927 C 113.579 266.785 116.376 259.216 120.388 251.388 C 112.559 255.399 105.003 258.209 92.86 270.208 L -126.789 487.282 C -127.855 489.772 -129.203 492.333 -130.741 494.938 C -131.757 495.795 -132.799 496.619 -133.839 497.447 C -141.578 489.8 -149.433 481.496 -148.879 471.899 L -159.806 468.381 C -154.81 479.753 -146.021 489.826 -136.492 499.585 C -138.082 500.881 -139.639 502.213 -141.088 503.666 C -145.093 507.683 -148.291 512.42 -152.231 516.501 C -157.393 521.849 -161.768 526.422 -165.527 532.029 L -165.504 532.08 C -165.812 532.331 -166.889 532.482 -168.552 532.553 C -168.993 534.02 -169.969 534.782 -170.84 535.675 C -169.76 537.552 -171.381 538.458 -173 538.277 C -175.312 541.333 -179.145 545.975 -183.184 549.957 C -186.358 553.084 -189.667 553.826 -193.413 552.999 C -192.971 555.553 -193.156 557.877 -189.604 561.429 L -189.604 561.429 Z " fill="rgb(255,255,255)"/></g><g><path d=" M 136.041 561.429 C 139.593 557.877 139.408 555.553 139.85 552.999 C 136.104 553.826 132.795 553.085 129.621 549.957 C 125.582 545.976 121.749 541.333 119.437 538.277 C 117.818 538.459 116.197 537.552 117.277 535.675 C 116.406 534.783 115.43 534.02 114.989 532.553 C 113.301 532.481 112.216 532.324 111.927 532.066 C 108.577 526.042 102.847 521.189 98.631 516.538 C 94.823 512.337 91.494 507.72 87.488 503.703 C 86.039 502.25 84.482 500.918 82.892 499.622 C 92.417 489.867 101.212 479.785 106.206 468.418 L 95.266 471.948 C 95.821 481.536 87.97 489.844 80.239 497.485 C 79.193 496.651 78.148 495.823 77.127 494.961 C 75.594 492.363 74.252 489.803 73.188 487.32 L -146.46 270.246 C -158.603 258.246 -166.172 255.449 -174 251.437 C -169.988 259.265 -167.179 266.822 -155.179 278.964 L 61.895 498.613 C 64.384 499.68 66.945 501.027 69.551 502.566 C 70.407 503.581 71.231 504.623 72.06 505.664 C 64.412 513.403 56.109 521.258 46.511 520.703 L 42.994 531.631 C 54.365 526.634 64.439 517.846 74.197 508.316 C 75.493 509.906 76.826 511.463 78.279 512.913 C 82.296 516.918 87.032 520.116 91.114 524.055 C 96.462 529.217 101.035 533.593 106.641 537.351 L 106.692 537.328 C 106.943 537.636 107.095 538.714 107.166 540.377 C 108.632 540.818 109.395 541.794 110.287 542.665 C 112.165 541.585 113.071 543.205 112.889 544.825 C 115.945 547.136 120.588 550.97 124.569 555.009 C 127.697 558.182 128.438 561.491 127.612 565.237 C 130.165 564.796 132.489 564.98 136.041 561.429 L 136.041 561.429 Z " fill="rgb(255,255,255)"/></g></g></svg>